<svg width="208" height="180" viewBox="0 0 208 180" fill="none" xmlns="http://www.w3.org/2000/svg">
<path opacity="0.5" d="M0.923749 12C0.923749 8.33067 1.62775 5.44 3.03575 3.328C4.46508 1.216 6.75842 0.159998 9.91575 0.159998C13.0731 0.159998 15.3558 1.216 16.7638 3.328C18.1931 5.44 18.9078 8.33067 18.9078 12C18.9078 15.712 18.1931 18.624 16.7638 20.736C15.3558 22.848 13.0731 23.904 9.91575 23.904C6.75842 23.904 4.46508 22.848 3.03575 20.736C1.62775 18.624 0.923749 15.712 0.923749 12ZM13.5317 12C13.5317 9.84533 13.2971 8.192 12.8278 7.04C12.3584 5.86667 11.3877 5.28 9.91575 5.28C8.44375 5.28 7.47308 5.86667 7.00375 7.04C6.53442 8.192 6.29975 9.84533 6.29975 12C6.29975 13.4507 6.38508 14.656 6.55575 15.616C6.72642 16.5547 7.06775 17.3227 7.57975 17.92C8.11308 18.496 8.89175 18.784 9.91575 18.784C10.9397 18.784 11.7078 18.496 12.2198 17.92C12.7531 17.3227 13.1051 16.5547 13.2758 15.616C13.4464 14.656 13.5317 13.4507 13.5317 12ZM20.9668 19.616C21.6921 19.04 22.0228 18.7733 21.9588 18.816C24.0494 17.088 25.6921 15.6693 26.8868 14.56C28.1028 13.4507 29.1268 12.288 29.9588 11.072C30.7908 9.856 31.2068 8.672 31.2068 7.52C31.2068 6.64533 31.0041 5.96266 30.5988 5.472C30.1934 4.98133 29.5854 4.736 28.7748 4.736C27.9641 4.736 27.3241 5.04533 26.8548 5.664C26.4068 6.26133 26.1828 7.11467 26.1828 8.224H20.9028C20.9454 6.41067 21.3294 4.896 22.0548 3.68C22.8014 2.464 23.7721 1.568 24.9668 0.991999C26.1828 0.415998 27.5268 0.127998 28.9988 0.127998C31.5374 0.127998 33.4468 0.778665 34.7268 2.08C36.0281 3.38133 36.6788 5.07733 36.6788 7.168C36.6788 9.45067 35.9001 11.5733 34.3428 13.536C32.7854 15.4773 30.8014 17.376 28.3908 19.232H37.0308V23.68H20.9668V19.616Z" fill="#ACE0F0"/>
<circle cx="116.5" cy="90" r="90" fill="#FDEFEF"/>
<path d="M185.468 142.606L62.2108 163.62C59.4591 164.09 56.8871 162.157 56.4638 159.302L41.3073 57.0866C40.8839 54.2317 42.7701 51.5389 45.5218 51.0698L168.775 30.0566C171.526 29.5874 174.098 31.5201 174.522 34.375L189.678 136.59C190.102 139.445 188.215 142.138 185.468 142.606Z" fill="white"/>
<path d="M181.727 140.164L65.0595 160.054C62.455 160.498 60.0204 158.669 59.6198 155.967L45.2736 59.2165C44.8729 56.5143 46.6583 53.9655 49.2628 53.5214L165.926 33.6318C168.53 33.1877 170.965 35.0171 171.365 37.7193L185.712 134.469C186.112 137.172 184.327 139.72 181.727 140.164Z" fill="#EAFAFF"/>
<path d="M137.024 50.2588L151.554 148.746L185.423 142.943C188.197 142.467 190.102 139.764 189.68 136.901L175.914 43.5954L137.024 50.2588Z" fill="#CBECF6"/>
<path d="M147.436 82.7443C146.42 82.9197 145.465 82.2104 145.31 81.1565C145.157 80.1075 145.857 79.1074 146.878 78.9312C147.898 78.755 148.849 79.4651 149.003 80.519C149.157 81.5728 148.456 82.5681 147.436 82.7443ZM146.953 79.4438C146.21 79.5719 145.695 80.3044 145.807 81.0708C145.919 81.8373 146.618 82.3599 147.361 82.2317C148.103 82.1036 148.62 81.3759 148.507 80.6047C148.394 79.8334 147.7 79.3148 146.953 79.4438Z" fill="#26254C"/>
<path d="M174.819 75.9445L151.013 79.9248L151.09 80.4336L174.896 76.4533L174.819 75.9445Z" fill="#26254C"/>
<path d="M149.475 96.1718C148.459 96.3473 147.504 95.638 147.35 94.5842C147.196 93.5352 147.897 92.5352 148.917 92.3589C149.938 92.1827 150.888 92.8928 151.043 93.9466C151.197 95.0004 150.496 95.9956 149.475 96.1718ZM148.992 92.8715C148.25 92.9996 147.733 93.7273 147.846 94.4985C147.959 95.2697 148.658 95.7875 149.4 95.6593C150.143 95.5311 150.658 94.7987 150.546 94.0323C150.434 93.2659 149.739 92.7425 148.992 92.8715Z" fill="#26254C"/>
<path d="M176.86 89.3727L153.053 93.3525L153.13 93.8614L176.937 89.8815L176.86 89.3727Z" fill="#26254C"/>
<path d="M151.505 109.596C150.489 109.771 149.533 109.062 149.379 108.008C149.226 106.959 149.926 105.959 150.946 105.783C151.967 105.607 152.918 106.317 153.072 107.37C153.226 108.42 152.525 109.42 151.505 109.596ZM151.022 106.295C150.279 106.423 149.763 107.156 149.876 107.922C149.988 108.689 150.687 109.211 151.43 109.083C152.172 108.955 152.688 108.227 152.576 107.456C152.463 106.685 151.768 106.166 151.022 106.295Z" fill="#26254C"/>
<path d="M178.892 102.795L155.086 106.775L155.163 107.284L178.969 103.304L178.892 102.795Z" fill="#26254C"/>
<path d="M97.3849 104.243C100.864 103.65 103.25 100.243 102.715 96.6329C102.18 93.0233 98.9256 90.578 95.4468 91.1711C91.9681 91.7643 89.5818 95.1713 90.117 98.7809C90.6522 102.391 93.9061 104.836 97.3849 104.243Z" fill="#E03C31"/>
<path d="M70.0366 91.3259C67.6289 91.7374 65.3654 90.0426 64.9957 87.5418C64.6259 85.0411 66.2843 82.676 68.6967 82.2637C71.109 81.8514 73.3678 83.547 73.7376 86.0477C74.1074 88.5485 72.449 90.9136 70.0366 91.3259ZM68.7676 82.7437C66.6146 83.1117 65.1287 85.2307 65.4587 87.4627C65.7887 89.6946 67.8126 91.2139 69.9656 90.8459C72.1187 90.4779 73.6046 88.3588 73.2746 86.1269C72.9439 83.8901 70.9253 82.3749 68.7676 82.7437Z" fill="#75CBE6"/>
<path d="M82.4178 89.243C80.0032 89.6578 77.7444 87.9662 77.3768 85.468C77.0093 82.9697 78.6713 80.6047 81.0859 80.1899C83.5006 79.7752 85.7594 81.4667 86.127 83.965C86.4945 86.4632 84.8278 88.8291 82.4178 89.243ZM81.1565 80.6694C79.0014 81.0396 77.5123 83.1586 77.8403 85.3884C78.1683 87.6181 80.1922 89.1337 82.3473 88.7635C84.5024 88.3933 85.9915 86.2743 85.6635 84.0446C85.3347 81.8101 83.3116 80.2992 81.1565 80.6694Z" fill="#75CBE6"/>
<path d="M94.8017 87.1768C92.387 87.5916 90.1282 85.9 89.7606 83.4017C89.3931 80.9034 91.0552 78.5383 93.4698 78.1235C95.8845 77.7087 98.1433 79.4003 98.5108 81.8986C98.8784 84.3969 97.2163 86.7621 94.8017 87.1768ZM93.5404 78.603C91.3853 78.9732 89.8961 81.0923 90.2241 83.3221C90.5521 85.5519 92.576 87.0675 94.7311 86.6973C96.8862 86.3271 98.3754 84.208 98.0474 81.9782C97.7187 79.7437 95.7001 78.232 93.5404 78.603Z" fill="#75CBE6"/>
<path d="M107.189 85.1062C104.779 85.5202 102.515 83.8294 102.148 81.3312C101.78 78.833 103.442 76.4679 105.857 76.0532C108.272 75.6384 110.53 77.33 110.898 79.8282C111.266 82.3264 109.599 84.6923 107.189 85.1062ZM105.927 76.5327C103.772 76.9028 102.283 79.0219 102.611 81.2516C102.939 83.4813 104.963 84.9969 107.118 84.6267C109.274 84.2565 110.763 82.1375 110.435 79.9078C110.106 77.6733 108.083 76.1625 105.927 76.5327Z" fill="#75CBE6"/>
<path d="M119.569 83.0479C117.159 83.4618 114.896 81.771 114.528 79.2728C114.161 76.7746 115.823 74.4095 118.237 73.9948C120.652 73.5801 122.911 75.2717 123.279 77.7699C123.646 80.2681 121.984 82.6331 119.569 83.0479ZM118.308 74.4743C116.153 74.8445 114.664 76.9635 114.992 79.1932C115.32 81.4229 117.344 82.9385 119.499 82.5684C121.654 82.1982 123.143 80.0792 122.815 77.8495C122.486 75.615 120.468 74.1033 118.308 74.4743Z" fill="#75CBE6"/>
<path d="M131.959 80.9837C129.544 81.3985 127.285 79.7068 126.918 77.2086C126.55 74.7103 128.212 72.3451 130.627 71.9304C133.042 71.5156 135.3 73.2072 135.668 75.7055C136.036 78.2038 134.369 80.5697 131.959 80.9837ZM130.698 72.4099C128.542 72.7801 127.053 74.8992 127.381 77.1289C127.709 79.3587 129.733 80.8744 131.888 80.5042C134.043 80.134 135.533 78.0149 135.205 75.7851C134.876 73.5506 132.853 72.0397 130.698 72.4099Z" fill="#75CBE6"/>
<path d="M59.9303 108.408C57.5156 108.823 55.2567 107.131 54.8892 104.633C54.5216 102.135 56.1837 99.7696 58.5984 99.3548C61.0085 98.9407 63.272 100.631 63.6396 103.13C64.0071 105.628 62.3404 107.994 59.9303 108.408ZM58.669 99.8343C56.5138 100.205 55.0246 102.324 55.3526 104.553C55.6807 106.783 57.7046 108.299 59.8598 107.928C62.0149 107.558 63.5041 105.439 63.1761 103.209C62.8481 100.979 60.8241 99.464 58.669 99.8343Z" fill="#75CBE6"/>
<path d="M72.3072 106.338C69.8972 106.753 67.6336 105.062 67.2661 102.564C66.8985 100.065 68.5606 97.7003 70.9753 97.2854C73.39 96.8705 75.6489 98.562 76.0164 101.06C76.384 103.558 74.7219 105.924 72.3072 106.338ZM71.0458 97.7649C68.8907 98.1352 67.4015 100.254 67.7296 102.484C68.0576 104.714 70.0816 106.229 72.2367 105.859C74.3918 105.489 75.881 103.37 75.553 101.14C75.2249 98.9101 73.2056 97.3938 71.0458 97.7649Z" fill="#75CBE6"/>
<path d="M84.6949 104.276C82.2802 104.691 80.0213 102.999 79.6538 100.501C79.2862 98.0029 80.9483 95.6378 83.363 95.2229C85.7777 94.8081 88.0366 96.4995 88.4042 98.9977C88.7717 101.496 87.105 103.862 84.6949 104.276ZM83.4335 95.7024C81.2784 96.0727 79.7892 98.1918 80.1172 100.421C80.4453 102.651 82.4692 104.167 84.6244 103.796C86.7795 103.426 88.2687 101.307 87.9407 99.0773C87.6126 96.8477 85.5887 95.3322 83.4335 95.7024Z" fill="#75CBE6"/>
<path d="M109.471 100.147C107.061 100.561 104.797 98.8705 104.43 96.3722C104.062 93.874 105.724 91.5089 108.139 91.094C110.554 90.6792 112.813 92.3707 113.18 94.8689C113.548 97.3671 111.881 99.733 109.471 100.147ZM108.209 91.5735C106.054 91.9438 104.565 94.0629 104.893 96.2926C105.221 98.5223 107.245 100.038 109.4 99.6676C111.555 99.2973 113.045 97.1782 112.717 94.9485C112.389 92.7188 110.365 91.2033 108.209 91.5735Z" fill="#75CBE6"/>
<path d="M121.853 98.0844C119.443 98.4985 117.179 96.8078 116.811 94.3097C116.444 91.8115 118.106 89.4464 120.521 89.0315C122.935 88.6167 125.194 90.3081 125.562 92.8062C125.929 95.3044 124.267 97.6695 121.853 98.0844ZM120.591 89.511C118.436 89.8813 116.947 92.0004 117.275 94.23C117.603 96.4597 119.627 97.9752 121.782 97.6049C123.937 97.2346 125.426 95.1155 125.098 92.8859C124.77 90.6562 122.751 89.1399 120.591 89.511Z" fill="#75CBE6"/>
<path d="M134.24 96.018C131.826 96.4329 129.567 94.7414 129.199 92.2432C128.832 89.7451 130.494 87.38 132.908 86.9652C135.323 86.5504 137.582 88.2418 137.95 90.74C138.317 93.2381 136.651 95.604 134.24 96.018ZM132.979 87.4447C130.824 87.8149 129.335 89.934 129.663 92.1636C129.991 94.3933 132.015 95.9088 134.17 95.5385C136.325 95.1683 137.814 93.0492 137.486 90.8196C137.158 88.59 135.134 87.0745 132.979 87.4447Z" fill="#75CBE6"/>
<path d="M62.2056 123.47C59.79 123.886 57.5311 122.196 57.1644 119.698C56.7977 117.201 58.4612 114.836 60.8767 114.42C63.2877 114.005 65.5513 115.695 65.918 118.192C66.2847 120.689 64.6165 123.055 62.2056 123.47ZM60.9471 114.9C58.7912 115.271 57.3007 117.39 57.628 119.619C57.9553 121.847 59.9793 123.362 62.1352 122.99C64.2912 122.619 65.7816 120.5 65.4543 118.272C65.127 116.043 63.1031 114.529 60.9471 114.9Z" fill="#75CBE6"/>
<path d="M74.5908 121.411C72.1799 121.826 69.9163 120.137 69.5496 117.64C69.1829 115.143 70.8464 112.778 73.262 112.362C75.6776 111.946 77.9365 113.636 78.3032 116.133C78.6699 118.63 77.0064 120.995 74.5908 121.411ZM73.3324 112.841C71.1764 113.212 69.686 115.331 70.0132 117.56C70.3405 119.789 72.3645 121.303 74.5204 120.932C76.6764 120.561 78.1668 118.442 77.8395 116.213C77.5123 113.984 75.4929 112.469 73.3324 112.841Z" fill="#75CBE6"/>
<path d="M86.9709 119.345C84.5554 119.761 82.2965 118.071 81.9299 115.573C81.5632 113.076 83.2268 110.711 85.6423 110.295C88.0579 109.88 90.3168 111.569 90.6834 114.067C91.05 116.564 89.3819 118.93 86.9709 119.345ZM85.7127 110.775C83.5568 111.146 82.0663 113.265 82.3935 115.494C82.7207 117.722 84.7446 119.237 86.9006 118.865C89.0565 118.494 90.547 116.375 90.2198 114.146C89.8926 111.918 87.8686 110.404 85.7127 110.775Z" fill="#75CBE6"/>
<path d="M99.3564 117.282C96.9409 117.698 94.6819 116.008 94.3152 113.511C93.9485 111.014 95.612 108.649 98.0276 108.233C100.443 107.817 102.702 109.507 103.069 112.004C103.435 114.502 101.772 116.867 99.3564 117.282ZM98.098 108.712C95.942 109.083 94.4516 111.202 94.7789 113.431C95.1062 115.66 97.1301 117.174 99.2861 116.803C101.442 116.432 102.932 114.313 102.605 112.084C102.278 109.855 100.259 108.34 98.098 108.712Z" fill="#75CBE6"/>
<path d="M111.748 115.22C109.337 115.635 107.073 113.946 106.706 111.448C106.34 108.951 108.003 106.586 110.419 106.17C112.834 105.755 115.093 107.445 115.46 109.942C115.827 112.439 114.159 114.805 111.748 115.22ZM110.489 106.65C108.333 107.021 106.843 109.14 107.17 111.369C107.497 113.597 109.521 115.112 111.677 114.74C113.833 114.369 115.324 112.25 114.996 110.022C114.669 107.793 112.645 106.279 110.489 106.65Z" fill="#75CBE6"/>
<path d="M124.13 113.154C121.719 113.569 119.456 111.879 119.089 109.382C118.722 106.885 120.386 104.52 122.802 104.104C125.217 103.688 127.476 105.378 127.843 107.875C128.209 110.373 126.546 112.738 124.13 113.154ZM122.872 104.583C120.716 104.954 119.225 107.074 119.553 109.302C119.88 111.531 121.904 113.045 124.06 112.674C126.216 112.303 127.706 110.184 127.379 107.955C127.052 105.726 125.033 104.211 122.872 104.583Z" fill="#75CBE6"/>
<path d="M136.513 111.092C134.098 111.508 131.839 109.818 131.472 107.321C131.105 104.823 132.769 102.458 135.184 102.043C137.6 101.627 139.859 103.317 140.226 105.814C140.592 108.311 138.924 110.677 136.513 111.092ZM135.255 102.522C133.099 102.893 131.608 105.012 131.936 107.241C132.263 109.47 134.287 110.984 136.443 110.613C138.599 110.242 140.089 108.122 139.762 105.894C139.435 103.665 137.411 102.151 135.255 102.522Z" fill="#75CBE6"/>
<path d="M64.4848 138.358C62.0692 138.773 59.8103 137.083 59.4437 134.586C59.077 132.089 60.7405 129.724 63.1561 129.308C65.5671 128.893 67.8306 130.582 68.1973 133.08C68.5639 135.577 66.8958 137.943 64.4848 138.358ZM63.2272 129.792C61.0712 130.163 59.5807 132.282 59.908 134.511C60.2352 136.74 62.2592 138.254 64.4151 137.883C66.5711 137.512 68.0616 135.393 67.7343 133.164C67.4064 130.931 65.3831 129.421 63.2272 129.792Z" fill="#75CBE6"/>
<path d="M76.8717 136.296C74.4607 136.711 72.1971 135.022 71.8305 132.525C71.4638 130.027 73.1273 127.662 75.5429 127.247C77.9585 126.831 80.2174 128.521 80.5841 131.018C80.9508 133.515 79.2873 135.88 76.8717 136.296ZM75.614 127.731C73.458 128.102 71.9675 130.221 72.2948 132.45C72.6221 134.678 74.646 136.193 76.802 135.821C78.9579 135.45 80.4484 133.331 80.1211 131.103C79.7932 128.869 77.7746 127.359 75.614 127.731Z" fill="#75CBE6"/>
<path d="M89.255 134.225C86.8395 134.64 84.5805 132.951 84.2138 130.453C83.8471 127.956 85.5106 125.591 87.9262 125.175C90.3418 124.76 92.6007 126.449 92.9674 128.947C93.3341 131.444 91.666 133.81 89.255 134.225ZM87.9973 125.659C85.8413 126.03 84.3509 128.15 84.6782 130.378C85.0054 132.607 87.0294 134.121 89.1854 133.75C91.3413 133.379 92.8318 131.26 92.5045 129.031C92.1765 126.798 90.1532 125.288 87.9973 125.659Z" fill="#75CBE6"/>
<path d="M101.639 132.162C99.2233 132.578 96.9643 130.888 96.5976 128.391C96.2309 125.894 97.8944 123.529 100.31 123.113C102.726 122.697 104.985 124.387 105.351 126.884C105.718 129.381 104.054 131.746 101.639 132.162ZM100.381 123.597C98.2251 123.968 96.7347 126.087 97.062 128.316C97.3893 130.545 99.4132 132.059 101.569 131.688C103.725 131.316 105.216 129.197 104.888 126.969C104.56 124.735 102.542 123.225 100.381 123.597Z" fill="#75CBE6"/>
<path d="M114.026 130.101C111.615 130.516 109.351 128.826 108.984 126.329C108.618 123.832 110.281 121.467 112.697 121.051C115.112 120.636 117.371 122.325 117.738 124.823C118.105 127.32 116.436 129.686 114.026 130.101ZM112.768 121.535C110.612 121.906 109.121 124.026 109.449 126.254C109.776 128.483 111.8 129.997 113.956 129.626C116.112 129.255 117.602 127.136 117.275 124.907C116.947 122.674 114.924 121.164 112.768 121.535Z" fill="#75CBE6"/>
<path d="M126.412 128.038C124.001 128.453 121.737 126.764 121.371 124.267C121.004 121.77 122.667 119.405 125.083 118.989C127.498 118.573 129.757 120.263 130.124 122.76C130.491 125.257 128.827 127.622 126.412 128.038ZM125.154 119.473C122.998 119.844 121.508 121.963 121.835 124.192C122.162 126.421 124.186 127.935 126.342 127.564C128.498 127.192 129.988 125.073 129.661 122.845C129.333 120.611 127.315 119.101 125.154 119.473Z" fill="#75CBE6"/>
<path d="M138.797 125.972C136.382 126.387 134.123 124.698 133.756 122.2C133.39 119.703 135.053 117.338 137.469 116.922C139.884 116.506 142.143 118.196 142.51 120.693C142.876 123.191 141.208 125.557 138.797 125.972ZM137.54 117.406C135.384 117.778 133.893 119.897 134.221 122.125C134.548 124.354 136.572 125.868 138.728 125.497C140.884 125.126 142.374 123.007 142.047 120.778C141.719 118.545 139.696 117.035 137.54 117.406Z" fill="#75CBE6"/>
<path d="M66.7613 153.551C64.3445 153.968 62.0856 152.281 61.7202 149.785C61.3548 147.289 63.0203 144.924 65.4371 144.507C67.8493 144.09 70.1128 145.777 70.4782 148.273C70.8436 150.769 69.1735 153.135 66.7613 153.551ZM65.5072 144.986C63.3502 145.358 61.8579 147.477 62.1841 149.705C62.5102 151.932 64.5342 153.444 66.6912 153.072C68.8482 152.7 70.3405 150.581 70.0143 148.353C69.6882 146.126 67.6643 144.613 65.5072 144.986Z" fill="#75CBE6"/>
<path d="M79.1477 151.485C76.7355 151.901 74.472 150.214 74.1065 147.718C73.7411 145.222 75.4065 142.857 77.8233 142.44C80.2401 142.023 82.499 143.711 82.8645 146.207C83.23 148.702 81.5645 151.067 79.1477 151.485ZM77.8935 142.919C75.7364 143.292 74.2442 145.411 74.5704 147.638C74.8966 149.866 76.9205 151.378 79.0775 151.006C81.2346 150.633 82.7268 148.514 82.4006 146.287C82.0744 144.059 80.0551 142.546 77.8935 142.919Z" fill="#75CBE6"/>
<path d="M91.5329 149.422C89.1161 149.839 86.8572 148.152 86.4918 145.656C86.1263 143.16 87.7918 140.795 90.2086 140.378C92.6253 139.96 94.8842 141.648 95.2497 144.144C95.6152 146.64 93.945 149.006 91.5329 149.422ZM90.2787 140.857C88.1217 141.229 86.6295 143.348 86.9556 145.576C87.2818 147.803 89.3057 149.315 91.4627 148.943C93.6198 148.571 95.112 146.452 94.7858 144.224C94.4597 141.996 92.4357 140.484 90.2787 140.857Z" fill="#75CBE6"/>
<path d="M53.469 77.3877L53.6814 76.5819C54.0675 76.7874 54.6172 76.8811 55.1166 76.796C55.6855 76.699 55.8875 76.4623 55.8482 76.1977C55.7284 75.3893 53.4017 76.3583 53.1641 74.756C53.0557 74.0246 53.5339 73.3166 54.7086 73.1163C55.2311 73.0272 55.7822 73.0664 56.2032 73.2512L56.0199 74.0619C55.6025 73.9012 55.1884 73.8583 54.8231 73.9206C54.2542 74.0176 54.0697 74.276 54.1097 74.5454C54.2274 75.3394 56.5555 74.38 56.7902 75.9631C56.8972 76.6848 56.4151 77.3985 55.2312 77.6003C54.5698 77.7131 53.8786 77.6237 53.469 77.3877Z" fill="#ED5F36"/>
<path d="M69.0745 75.2074L68.6877 72.6307L67.7817 74.9652L67.3514 75.0386L65.8327 73.1766L66.207 75.7012L65.3095 75.8542L64.6719 71.5537L65.4629 71.4188L67.4091 73.828L68.5394 70.8943L69.3258 70.7602L69.9773 75.0583L69.0752 75.2122L69.0745 75.2074Z" fill="#75CBE6"/>
<path d="M79.0212 69.9793L77.6942 70.2055L77.5737 69.3925L81.18 68.7776L81.3005 69.5907L79.9736 69.8169L80.4922 73.3144L79.5351 73.4775L79.0165 69.9801L79.0212 69.9793Z" fill="#75CBE6"/>
<path d="M95.079 66.46L94.3619 70.9846L93.3314 71.1602L91.9901 68.4112L91.4828 71.4752L90.4615 71.6492L88.4658 67.5869L89.4594 67.4176L90.8408 70.2776L91.368 67.0924L92.2553 66.9412L93.6542 69.8228L94.1686 66.6151L95.079 66.46Z" fill="#75CBE6"/>
<path d="M103.793 65.8513L102.466 66.0776L102.346 65.2646L105.952 64.6497L106.072 65.4627L104.746 65.689L105.264 69.1862L104.307 69.3494L103.789 65.8521L103.793 65.8513Z" fill="#75CBE6"/>
<path d="M116.05 63.7947L116.219 64.9352L118.139 64.608L118.257 65.4068L116.337 65.734L116.57 67.3028L115.613 67.466L114.973 63.1543L118.105 62.6204L118.223 63.4193L116.049 63.7899L116.05 63.7947Z" fill="#75CBE6"/>
<path d="M127.771 65.0018L127.983 64.196C128.369 64.4016 128.919 64.4953 129.418 64.4102C129.987 64.3132 130.189 64.0765 130.15 63.8119C130.03 63.0035 127.704 63.9724 127.466 62.3702C127.357 61.6389 127.836 60.9308 129.01 60.7306C129.533 60.6415 130.084 60.6808 130.505 60.8655L130.326 61.6754C129.909 61.5147 129.495 61.4718 129.129 61.5341C128.561 61.6311 128.376 61.8895 128.416 62.1589C128.534 62.9528 130.862 61.9935 131.097 63.5765C131.204 64.2982 130.721 65.0118 129.538 65.2137C128.876 65.3264 128.185 65.2371 127.771 65.0018Z" fill="#75CBE6"/>
<path d="M176.115 47.5605L43.2912 70.004L41.3096 56.7609C40.8874 53.9397 42.7681 51.2787 45.5118 50.8151L168.407 30.0492C171.151 29.5856 173.716 31.4955 174.138 34.3167L176.12 47.5598L176.115 47.5605Z" fill="#E03C31"/>
<path d="M70.2072 55.9699C65.2161 56.8311 60.5433 53.3395 59.7883 48.1846C59.0334 43.0298 62.4782 38.1376 67.4694 37.2764C72.4606 36.4152 77.1333 39.9068 77.8883 45.0616L76.9606 45.2217C76.2835 40.5987 72.0906 37.4614 67.6097 38.2345C63.1288 39.0077 60.0383 43.3967 60.7161 48.0246C61.3939 52.6524 65.586 55.7849 70.0669 55.0117L70.2072 55.9699Z" fill="#EAFAFF"/>
<path d="M82.9026 53.8486C77.9114 54.7098 73.2387 51.2182 72.4837 46.0634C71.7287 40.9087 75.1735 36.0165 80.1647 35.1553C85.1559 34.2941 89.8286 37.7856 90.5836 42.9404L89.6559 43.1005C88.9788 38.4775 84.7859 35.3403 80.305 36.1134C75.8241 36.8866 72.7336 41.2756 73.4114 45.9034C74.0892 50.5312 78.2813 53.6636 82.7622 52.8904L82.9026 53.8486Z" fill="#EAFAFF"/>
<path d="M95.5867 51.7396C90.5956 52.6007 85.9229 49.1091 85.168 43.9542C84.4132 38.7993 87.8581 33.9071 92.8493 33.046C97.8405 32.1849 102.513 35.6765 103.268 40.8314L102.34 40.9914C101.663 36.3684 97.4705 33.2311 92.9896 34.0042C88.5087 34.7773 85.4181 39.1663 86.0958 43.7941C86.7734 48.422 90.9655 51.5545 95.4464 50.7814L95.5867 51.7396Z" fill="#EAFAFF"/>
<path d="M108.283 49.6192C103.292 50.4804 98.6195 46.9889 97.8645 41.8341C97.1096 36.6792 100.554 31.7869 105.546 30.9257C110.537 30.0644 115.209 33.5559 115.964 38.7108L115.037 38.8708C114.36 34.2478 110.167 31.1106 105.686 31.8838C101.205 32.657 98.1145 37.0461 98.7923 41.674C99.47 46.3018 103.662 49.4342 108.143 48.661L108.283 49.6192Z" fill="#EAFAFF"/>
<path d="M120.976 47.5098C115.985 48.371 111.312 44.8795 110.557 39.7247C109.802 34.5698 113.247 29.6775 118.238 28.8163C123.229 27.955 127.902 31.4465 128.657 36.6013L127.729 36.7614C127.052 32.1383 122.859 29.0012 118.378 29.7744C113.897 30.5476 110.807 34.9367 111.485 39.5646C112.162 44.1925 116.354 47.3248 120.835 46.5516L120.976 47.5098Z" fill="#EAFAFF"/>
<path d="M133.667 45.3926C128.676 46.2539 124.003 42.7623 123.248 37.6075C122.493 32.4526 125.938 27.5604 130.929 26.6991C135.921 25.8379 140.593 29.3294 141.348 34.4842L140.421 34.6443C139.743 30.0213 135.551 26.8841 131.07 27.6573C126.589 28.4305 123.498 32.8195 124.176 37.4474C124.854 42.0753 129.046 45.2077 133.527 44.4345L133.667 45.3926Z" fill="#EAFAFF"/>
<path d="M146.352 43.2724C141.361 44.1337 136.688 40.6422 135.933 35.4874C135.178 30.3325 138.623 25.4402 143.614 24.579C148.605 23.7177 153.278 27.2092 154.033 32.364L153.105 32.5241C152.428 27.901 148.235 24.7639 143.754 25.5371C139.273 26.3103 136.183 30.6994 136.861 35.3273C137.538 39.9551 141.731 43.0875 146.211 42.3143L146.352 43.2724Z" fill="#EAFAFF"/>
<path d="M188.386 84.9599C195.078 75.3282 193.136 61.9404 184.049 55.0575C174.962 48.1747 162.171 50.403 155.479 60.0348C148.787 69.6665 150.729 83.0543 159.816 89.9372C168.903 96.8201 181.694 94.5917 188.386 84.9599Z" fill="#E03C31"/>
<path d="M174.288 88.5284C182.849 87.0555 188.735 78.6846 187.434 69.8314C186.134 60.9781 178.139 54.9951 169.578 56.468C161.016 57.9408 155.131 66.3117 156.431 75.165C157.732 84.0182 165.727 90.0012 174.288 88.5284Z" fill="white"/>
<path d="M174.238 85.2103C173.874 85.273 173.54 85.0201 173.485 84.65L171.425 70.596L161.949 64.9609C161.634 64.7737 161.529 64.3531 161.716 64.0253C161.902 63.6975 162.311 63.5826 162.626 63.7698L172.37 69.5658C172.543 69.669 172.66 69.8459 172.69 70.0478L174.797 84.4239C174.847 84.7948 174.602 85.1475 174.238 85.2103Z" fill="#26254C"/>
<path d="M96.4644 100.773C96.3494 100.798 96.2321 100.774 96.1269 100.704L92.8401 98.3861C92.6343 98.245 92.5868 97.9541 92.7259 97.739C92.8651 97.5239 93.1466 97.4707 93.3524 97.6118L96.2735 99.6688L99.2253 95.225C99.3645 95.0099 99.646 94.9566 99.8518 95.0977C100.058 95.2388 100.105 95.5297 99.9659 95.7448L96.758 100.576C96.6834 100.682 96.5794 100.749 96.4644 100.773Z" fill="white"/>
</svg>
