<?xml version="1.0" encoding="UTF-8"?>
<svg version="1.1" viewBox="0 0 2040 1960" width="1280" height="1280" xmlns="http://www.w3.org/2000/svg">
<path transform="translate(1342,974)" d="m0 0h248l24 2 25 4 21 5 24 8 24 11 20 11 16 11 14 11 13 11 18 18 9 11 10 13 10 15 10 18 8 16 10 26 6 23 4 19 2 17 1 18v570l-1 1h-577l-23-2-33-7-16-5-19-7-27-13-15-9-16-11-17-14-13-12-9-9-9-11-12-15-13-20-12-22-8-19-9-27-4-17-4-26-1-12v-276l4-33 5-25 9-30 11-26 8-17 11-19 13-19 10-13 9-11 9-10 19-19 14-11 11-9 24-16 24-13 12-6 25-10 31-9 33-6 18-2z" fill="#5D3E61"/>
<path transform="translate(217,92)" d="m0 0h487l30 2 26 5 22 6 24 9 25 12 15 9 17 12 11 9 13 11 15 15 9 11 11 14 10 15 12 21 7 15 8 21 8 26 4 25 2 19 1 226-1 51-4 35-4 20-7 25-9 24-11 24-13 23-15 22-13 16-11 13-17 17-11 9-13 11-30 20-24 13-20 9-22 8-25 7-27 5-24 3-13 1h-263l-27-3-31-6-29-10-23-10-21-12-12-8-12-9-13-11-8-7-16-16-9-11-10-13-11-17-10-18-9-19-9-25-5-19-4-20-2-19-1-26v-475l2-16 4-13 7-14 8-11 12-12 14-9 14-6 11-3z" fill="#5D3E61"/>
<path transform="translate(1288,92)" d="m0 0h487l17 2 16 6 11 6 10 8 6 5 8 10 8 14 5 12 2 9 1 9v494l-2 25-5 26-6 23-10 25-9 19-10 17-13 19-11 13-9 11-11 11-8 7-16 13-24 16-22 12-24 10-25 8-25 5-23 3-13 1h-260l-30-3-30-5-21-6-24-8-23-10-19-10-16-10-16-11-20-16-12-11-19-19-9-11-11-14-16-24-12-22-9-19-9-24-8-28-5-27-3-29v-276l3-25 6-28 9-27 9-21 7-12 6-11 10-15 9-12 11-13 8-9h2l2-4h2l2-4 8-7 16-13 24-16 18-10 22-10 27-9 32-7 15-2z" fill="#5D3E61"/>
<path transform="translate(627,974)" d="m0 0h27l22 2 32 5 25 6 27 9 26 11 22 12 16 10 17 12 11 9 13 11 26 26 22 28 13 20 10 18 12 25 9 24 8 28 4 20 4 35v45l-3 28-5 27-10 34-10 24-10 21-11 19-15 22-11 14-13 15-21 21-11 9-15 12-12 8-14 9-18 10-23 11-21 8-27 8-29 6-25 3-13 1h-31l-34-3-34-7-37-12-27-12-22-12-24-16-13-10-14-12-10-9-16-16-9-11-10-12-11-16-12-19-14-27-11-27-8-26-7-32-2-16-2-31 1-33 3-28 7-31 8-26 8-20 9-20 13-23 16-24 11-13 9-11 5-6 6-5 6-7 8-7 10-9 10-8 18-13 11-7 23-13 22-10 17-7 30-9 31-6z" fill="#5D3E61"/>
</svg>
