<svg width="208" height="180" viewBox="0 0 208 180" fill="none" xmlns="http://www.w3.org/2000/svg">
<path opacity="0.5" d="M0.548749 12C0.548749 8.33067 1.25275 5.44 2.66075 3.328C4.09008 1.216 6.38342 0.159998 9.54075 0.159998C12.6981 0.159998 14.9808 1.216 16.3888 3.328C17.8181 5.44 18.5328 8.33067 18.5328 12C18.5328 15.712 17.8181 18.624 16.3888 20.736C14.9808 22.848 12.6981 23.904 9.54075 23.904C6.38342 23.904 4.09008 22.848 2.66075 20.736C1.25275 18.624 0.548749 15.712 0.548749 12ZM13.1567 12C13.1567 9.84533 12.9221 8.192 12.4528 7.04C11.9834 5.86667 11.0127 5.28 9.54075 5.28C8.06875 5.28 7.09808 5.86667 6.62875 7.04C6.15942 8.192 5.92475 9.84533 5.92475 12C5.92475 13.4507 6.01008 14.656 6.18075 15.616C6.35142 16.5547 6.69275 17.3227 7.20475 17.92C7.73808 18.496 8.51675 18.784 9.54075 18.784C10.5647 18.784 11.3328 18.496 11.8448 17.92C12.3781 17.3227 12.7301 16.5547 12.9008 15.616C13.0714 14.656 13.1567 13.4507 13.1567 12ZM20.9118 19.84V15.424L31.0238 0.959999H37.1358V15.104H39.7598V19.84H37.1358V24H31.6638V19.84H20.9118ZM32.0478 6.976L26.6718 15.104H32.0478V6.976Z" fill="#ACE0F0"/>
<circle cx="116.5" cy="90" r="90" fill="#FDEFEF"/>
<path d="M79.5807 155.084C79.4226 155.086 79.2579 154.976 79.2537 154.763C79.2278 153.456 78.1551 152.404 76.8683 152.421C76.6546 152.424 76.5444 152.261 76.5413 152.101C76.5381 151.94 76.646 151.774 76.8555 151.772C78.1465 151.755 79.1728 150.675 79.1469 149.368C79.1427 149.155 79.3029 149.041 79.4611 149.039C79.6193 149.036 79.784 149.147 79.7882 149.359C79.814 150.667 80.8868 151.718 82.1778 151.701C82.3916 151.699 82.5017 151.862 82.5049 152.022C82.508 152.182 82.4001 152.348 82.1907 152.351C80.8996 152.368 79.8691 153.447 79.8949 154.755C79.8992 154.972 79.7389 155.082 79.5807 155.084Z" fill="#E03C31"/>
<path d="M142.705 34.4418C142.43 34.4454 142.144 34.2559 142.136 33.8918C142.092 31.6478 140.226 29.844 137.988 29.8735C137.616 29.8784 137.425 29.5985 137.419 29.3236C137.414 29.0486 137.601 28.7637 137.966 28.7589C140.212 28.7293 141.998 26.8773 141.953 24.6332C141.946 24.2691 142.225 24.0722 142.5 24.0685C142.775 24.0649 143.062 24.2544 143.069 24.6185C143.113 26.8625 144.979 28.6663 147.225 28.6367C147.597 28.6318 147.788 28.9117 147.793 29.1866C147.799 29.4616 147.611 29.7465 147.247 29.7513C145.001 29.7809 143.208 31.633 143.252 33.8771C143.259 34.2486 142.98 34.4381 142.705 34.4418Z" fill="#E03C31"/>
<circle cx="72.5079" cy="59.9874" r="25.5079" fill="white"/>
<mask id="mask0_908_7214" style="mask-type:alpha" maskUnits="userSpaceOnUse" x="47" y="34" width="52" height="52">
<circle cx="72.5079" cy="59.9874" r="25.5079" fill="white"/>
</mask>
<g mask="url(#mask0_908_7214)">
<path d="M61.8023 76.6092C64.3501 76.6092 66.4155 74.5437 66.4155 71.9959C66.4155 69.448 64.3501 67.3826 61.8023 67.3826C59.2544 67.3826 57.189 69.448 57.189 71.9959C57.189 74.5437 59.2544 76.6092 61.8023 76.6092Z" fill="#F8DBD9"/>
<path d="M56.5708 92.0786C58.597 92.0786 60.2397 90.436 60.2397 88.4097C60.2397 86.3834 58.597 84.7408 56.5708 84.7408C54.5445 84.7408 52.9019 86.3834 52.9019 88.4097C52.9019 90.436 54.5445 92.0786 56.5708 92.0786Z" fill="#F8DBD9"/>
<path d="M66.1988 73.3923L60.0728 89.5221L53.0776 87.2907L57.4068 70.5926L66.1988 73.3923Z" fill="#F8DBD9"/>
<path d="M81.2832 75.1968C83.8311 75.1968 85.8965 73.1314 85.8965 70.5835C85.8965 68.0357 83.8311 65.9702 81.2832 65.9702C78.7354 65.9702 76.6699 68.0357 76.6699 70.5835C76.6699 73.1314 78.7354 75.1968 81.2832 75.1968Z" fill="#F8DBD9"/>
<path d="M83.4985 91.3349C85.5248 91.3349 87.1674 89.6923 87.1674 87.666C87.1674 85.6397 85.5248 83.9971 83.4985 83.9971C81.4722 83.9971 79.8296 85.6397 79.8296 87.666C79.8296 89.6923 81.4722 91.3349 83.4985 91.3349Z" fill="#F8DBD9"/>
<path d="M85.855 69.9908L87.142 87.1987L79.8544 88.143L76.7036 71.1775L85.855 69.9908Z" fill="#F8DBD9"/>
<path d="M59.8637 71.436C59.8637 71.436 56.9637 55.8996 62.4378 46.3638C67.9119 36.828 77.8572 42.2603 79.4953 44.6923C82.5458 49.2388 81.827 63.3962 81.5094 67.8173L59.8637 71.436Z" fill="#26254C"/>
<path d="M55.3672 76.751C55.3672 76.751 55.6764 69.9063 59.0946 66.1204C60.039 65.0841 66.2151 63.2287 68.6304 63.4711C71.0457 63.7135 76.1521 64.1815 78.3668 64.8334C82.5455 66.0452 87.8692 64.8334 86.4985 78.6565L82.8798 79.4923C81.5677 83.671 82.5455 90.5157 82.5455 90.5157C78.4922 91.0255 69.7001 91.7609 62.939 90.9503C62.0448 90.8416 63.6744 78.4141 62.7133 78.2386C60.3148 77.9211 58.192 77.3778 55.3672 76.751Z" fill="#ACE0F0"/>
<path d="M78.4508 45.9205C78.4508 45.9205 82.1532 57.3534 77.7238 59.8439C73.2943 62.3344 67.2686 58.0722 67.5862 56.0664C67.9038 54.0606 67.5862 48.0182 67.5862 48.0182C67.5862 48.0182 74.8321 43.5052 78.4508 45.9205Z" fill="#F8DBD9"/>
<path d="M70.3351 58.2393C70.3351 58.2393 70.4855 62.5016 68.6636 63.471C68.6636 63.471 73.2518 71.3521 74.8648 71.4356C76.4778 71.5192 78.4 64.8333 78.4 64.8333C78.4 64.8333 76.8706 64.5157 76.4694 59.8188L70.3351 58.2393Z" fill="#F8DBD9"/>
<path d="M77.481 46.1631C77.481 46.1631 73.7954 51.47 70.2435 51.4784C69.938 51.4409 69.6279 51.4776 69.3396 51.5855C69.0513 51.6933 68.7933 51.8691 68.5874 52.098C68.3815 52.3268 68.2339 52.6019 68.157 52.9C68.0801 53.198 68.0763 53.5103 68.1458 53.8101L66.8587 52.1386C66.8587 52.1386 64.2011 43.9066 77.481 44.734C77.481 44.734 79.2611 45.2939 79.8963 48.0352C79.3828 47.915 78.9013 47.6856 78.4845 47.3626C78.0677 47.0395 77.7254 46.6304 77.481 46.1631Z" fill="#26254C"/>
<path d="M68.146 53.8099C68.146 53.8099 67.5025 51.8794 66.2991 52.4393C65.0956 52.9993 65.8979 55.9829 67.5861 56.0664L68.146 53.8099Z" fill="#F8DBD9"/>
<path d="M61.9614 69.8142C61.9614 69.8142 62.7136 70.2823 62.7972 76.6088" stroke="#26254C" stroke-width="0.5" stroke-miterlimit="10"/>
<path d="M81.5093 67.8092C81.5093 67.8092 85.5292 75.8824 82.345 80.4623C82.345 80.4623 81.7183 86.9058 82.5373 90.558" stroke="#26254C" stroke-width="0.5" stroke-miterlimit="10"/>
<path d="M57.198 92.3962C59.4043 92.3962 61.1928 90.6077 61.1928 88.4014C61.1928 86.1951 59.4043 84.4065 57.198 84.4065C54.9917 84.4065 53.2031 86.1951 53.2031 88.4014C53.2031 90.6077 54.9917 92.3962 57.198 92.3962Z" fill="#F8DBD9"/>
<path d="M57.9496 84.4827L72.9345 89.5055L72.082 93.9516L56.4453 92.3303L57.9496 84.4827Z" fill="#F8DBD9"/>
</g>
<mask id="mask1_908_7214" style="mask-type:alpha" maskUnits="userSpaceOnUse" x="135" y="103" width="53" height="52">
<circle cx="161.492" cy="129.043" r="25.5079" fill="#CBECF6"/>
</mask>
<g mask="url(#mask1_908_7214)">
<circle cx="161.902" cy="129.043" r="34.0052" fill="#CBECF6"/>
<path d="M154.631 116.856C154.631 116.856 153.102 128.557 157.489 128.991C161.877 129.426 164.727 127.052 166.256 123.584C167.786 120.116 165.136 120.834 164.727 121.445C164.727 121.445 167.685 114.307 163.891 114.006C160.097 113.706 155.45 113.497 154.631 116.856Z" fill="#F8DBD9"/>
<path d="M164.251 115.026C163.48 117.096 163.48 119.374 164.251 121.444H164.761C164.761 121.444 167.402 120.45 166.716 122.28C166.241 123.506 165.662 124.688 164.986 125.815C164.986 125.815 168.739 125.214 169.658 119.196C170.577 113.179 168.338 110.287 165.571 110.63C160.557 111.24 156.261 107.839 153.236 110.588C149.667 113.839 154.548 117.968 154.548 117.968C154.548 117.968 161.159 117.266 164.251 115.026Z" fill="#26254C"/>
<path d="M165.337 123.484C165.337 123.484 165.437 128.072 165.947 129.501C166.457 130.931 168.396 131.34 168.396 131.34C168.396 131.34 164.518 137.249 158.367 135.419V126.852L165.337 123.484Z" fill="#F8DBD9"/>
<path d="M166.758 130.546C166.758 130.546 164.351 134.599 161.393 135.009C158.434 135.418 158.401 132.151 158.401 132.151C156.975 132.286 155.599 132.74 154.372 133.48C152.793 134.599 152.392 155.025 152.392 155.025H166.758V130.546Z" fill="#EAFAFF"/>
<path d="M166.758 130.546C166.758 130.546 161.902 140.308 161.902 145.305V155.025H182.604C182.604 155.025 181.994 136.639 178.626 134.499C175.258 132.36 175.951 132.101 166.758 130.546Z" fill="white"/>
<path d="M158.401 132.15C156.089 139.549 154.988 147.274 155.141 155.024H142.605C142.605 155.024 144.185 136.755 150.962 134.498C157.74 132.242 158.401 132.15 158.401 132.15Z" fill="white"/>
<path d="M166.758 130.546C166.758 130.546 169.349 134.374 168.939 144.695" stroke="#231F20" stroke-miterlimit="10"/>
<path d="M168.956 147.879C169.87 147.879 170.611 147.138 170.611 146.225C170.611 145.311 169.87 144.57 168.956 144.57C168.042 144.57 167.301 145.311 167.301 146.225C167.301 147.138 168.042 147.879 168.956 147.879Z" stroke="#231F20" stroke-miterlimit="10"/>
<path d="M151.715 150.979C151.715 150.979 154.431 148.731 155.15 145.965C155.264 145.536 155.292 145.089 155.231 144.65C155.171 144.21 155.023 143.787 154.798 143.406C154.572 143.024 154.273 142.69 153.917 142.425C153.562 142.16 153.157 141.969 152.726 141.861V141.861C152.297 141.746 151.849 141.718 151.409 141.778C150.969 141.837 150.544 141.984 150.162 142.21C149.779 142.436 149.445 142.736 149.179 143.092C148.913 143.448 148.721 143.854 148.614 144.285C148.244 146.287 148.382 148.351 149.016 150.286" stroke="#231F20" stroke-miterlimit="10"/>
<path d="M151.706 151.79C152.154 151.79 152.517 151.427 152.517 150.98C152.517 150.532 152.154 150.169 151.706 150.169C151.258 150.169 150.896 150.532 150.896 150.98C150.896 151.427 151.258 151.79 151.706 151.79Z" fill="#43497B"/>
<path d="M149.007 151.096C149.455 151.096 149.818 150.733 149.818 150.286C149.818 149.838 149.455 149.475 149.007 149.475C148.56 149.475 148.197 149.838 148.197 150.286C148.197 150.733 148.56 151.096 149.007 151.096Z" fill="#43497B"/>
<path d="M152.709 141.861C152.709 141.861 154.322 134.189 158.4 132.15" stroke="#231F20" stroke-miterlimit="10"/>
<path d="M175.266 135.769C175.266 135.769 171.087 141.218 172.224 154.991" stroke="#231F20" stroke-width="0.5" stroke-miterlimit="10"/>
</g>
<path d="M125.201 127.593V106.495C125.201 102.234 123.508 98.1472 120.495 95.134C117.482 92.1208 113.395 90.428 109.134 90.428H87.6528L67.0124 75.4853L69.8921 90.428C65.6307 90.428 61.544 92.1208 58.5307 95.134C55.5175 98.1472 53.8247 102.234 53.8247 106.495V127.593C53.8247 131.854 55.5175 135.941 58.5307 138.954C61.544 141.968 65.6307 143.66 69.8921 143.66H109.146C113.405 143.657 117.489 141.963 120.499 138.95C123.51 135.937 125.201 131.852 125.201 127.593Z" fill="#EAFAFF"/>
<path d="M106.451 61.8162V82.9139C106.451 87.1752 108.144 91.262 111.157 94.2752C114.17 97.2884 118.257 98.9812 122.519 98.9812H144.012L164.652 113.936L161.772 98.9812C166.034 98.9812 170.12 97.2884 173.134 94.2752C176.147 91.262 177.84 87.1752 177.84 82.9139V61.8162C177.84 57.5548 176.147 53.468 173.134 50.4548C170.12 47.4416 166.034 45.7488 161.772 45.7488H122.506C118.247 45.7521 114.163 47.4463 111.153 50.4592C108.142 53.4721 106.451 57.557 106.451 61.8162Z" fill="white"/>
<path d="M117.476 79.836H140.663" stroke="#26254C" stroke-miterlimit="10"/>
<path d="M117.476 71.1226H166.815" stroke="#26254C" stroke-miterlimit="10"/>
<path d="M90.0137 127.062H66.8149" stroke="#26254C" stroke-miterlimit="10"/>
<path d="M114.177 118.348H64.8375" stroke="#26254C" stroke-miterlimit="10"/>
</svg>
