<svg width="206" height="180" viewBox="0 0 206 180" fill="none" xmlns="http://www.w3.org/2000/svg">
<path opacity="0.5" d="M0.173749 12C0.173749 8.33067 0.87775 5.44 2.28575 3.328C3.71508 1.216 6.00842 0.159998 9.16575 0.159998C12.3231 0.159998 14.6058 1.216 16.0138 3.328C17.4431 5.44 18.1578 8.33067 18.1578 12C18.1578 15.712 17.4431 18.624 16.0138 20.736C14.6058 22.848 12.3231 23.904 9.16575 23.904C6.00842 23.904 3.71508 22.848 2.28575 20.736C0.87775 18.624 0.173749 15.712 0.173749 12ZM12.7817 12C12.7817 9.84533 12.5471 8.192 12.0778 7.04C11.6084 5.86667 10.6377 5.28 9.16575 5.28C7.69375 5.28 6.72308 5.86667 6.25375 7.04C5.78442 8.192 5.54975 9.84533 5.54975 12C5.54975 13.4507 5.63508 14.656 5.80575 15.616C5.97642 16.5547 6.31775 17.3227 6.82975 17.92C7.36308 18.496 8.14175 18.784 9.16575 18.784C10.1897 18.784 10.9578 18.496 11.4698 17.92C12.0031 17.3227 12.3551 16.5547 12.5258 15.616C12.6964 14.656 12.7817 13.4507 12.7817 12ZM19.8328 5.728V0.639999H28.6968V24H23.0008V5.728H19.8328Z" fill="#ACE0F0"/>
<circle cx="116" cy="90" r="90" fill="#FDEFEF"/>
<path d="M58.1517 29.8411L132.536 19.6718C136.639 19.1108 140.645 22.0937 141.652 26.4533L168.055 141.199C168.843 144.61 166.839 147.852 163.639 148.358L78.6861 161.672C75.682 162.145 72.7335 159.876 72.1489 156.647L51.1034 40.4075C50.1662 35.2311 53.3233 30.5012 58.1517 29.8411Z" fill="#E03C31"/>
<path d="M88.4041 158.164L78.8456 159.335C75.6491 159.727 72.5471 157.27 71.9289 153.854L69.1392 138.439C69.1172 138.317 69.1933 138.21 69.302 138.195C69.4158 138.18 69.5219 138.268 69.543 138.384L72.3327 153.799C72.9077 156.977 75.7934 159.264 78.7673 158.903L88.3206 157.732C88.4345 157.717 88.5406 157.804 88.5626 157.926C88.5879 158.037 88.518 158.148 88.4041 158.164Z" fill="white"/>
<path d="M68.7023 134.257C68.5939 134.273 68.4933 134.186 68.4734 134.071L68.0485 131.602C68.0278 131.481 68.1003 131.375 68.2037 131.36C68.312 131.345 68.4127 131.432 68.4325 131.547L68.8574 134.016C68.8773 134.131 68.8106 134.242 68.7023 134.257Z" fill="white"/>
<path d="M58.6569 30.3444C68.846 30.56 103.777 30.7943 131.467 24.9174C132.728 24.6469 134.052 25.5646 134.393 26.9539L162.549 140.839C162.935 142.403 162.093 143.884 160.667 144.158C148.976 146.406 100.8 155.459 83.0195 155.662C81.9354 155.674 80.9427 154.811 80.7101 153.655L56.3715 33.3771C56.0451 31.7446 57.1191 30.3127 58.6569 30.3444Z" stroke="#767676" stroke-width="0.745117" stroke-miterlimit="10"/>
<path d="M59.8631 30.766C69.6642 31.0019 103.265 31.3144 129.878 25.6155C131.093 25.3542 132.367 26.2593 132.702 27.6202L160.209 139.388C160.588 140.921 159.783 142.373 158.408 142.637C147.174 144.814 100.864 153.581 83.7583 153.74C82.7161 153.751 81.7574 152.898 81.5293 151.764L57.6766 33.7374C57.3561 32.1342 58.3835 30.7341 59.8631 30.766Z" fill="#EAFAFF"/>
<path opacity="0.6" d="M131.833 36.1867C132.327 36.1162 132.642 35.6451 132.543 35.1349C132.444 34.6247 131.956 34.2617 131.465 34.3187L103.86 37.6576C103.363 37.7154 103.176 38.201 103.438 38.7404L103.648 39.1692C103.909 39.7022 104.526 40.0861 105.014 40.0163L131.833 36.1867Z" fill="#424242"/>
<path opacity="0.6" d="M104.55 42.0591C104.054 42.1168 103.866 42.6025 104.129 43.1419L104.339 43.5707C104.6 44.1036 105.217 44.4876 105.705 44.4178L132.529 40.5873C133.023 40.5168 133.338 40.0457 133.239 39.5355C133.14 39.0252 132.652 38.6622 132.161 38.7192L104.55 42.0591Z" fill="#424242"/>
<path opacity="0.6" d="M105.258 46.522C104.761 46.5797 104.573 47.0654 104.836 47.6048L105.046 48.0335C105.307 48.5665 105.924 48.9504 106.412 48.8806L133.236 45.0496C133.73 44.979 134.045 44.5079 133.946 43.9977C133.847 43.4875 133.359 43.1245 132.868 43.1815L105.258 46.522Z" fill="white"/>
<path opacity="0.6" d="M139.315 66.1771C139.81 66.1027 140.119 65.6265 140.007 65.1142C139.895 64.6019 139.4 64.2464 138.904 64.3143L74.2459 73.3966C73.75 73.4645 73.6639 73.8677 74.0492 74.2859L74.7081 75.007C75.0935 75.4253 75.8066 75.7149 76.3014 75.6406L139.314 66.1707L139.315 66.1771Z" fill="white"/>
<path opacity="0.6" d="M74.9467 77.8011C74.4508 77.869 74.3647 78.2721 74.75 78.6904L75.4089 79.4115C75.7942 79.8297 76.5073 80.1194 77.0022 80.045L140.015 70.5741C140.51 70.4997 140.819 70.0235 140.707 69.5112C140.595 68.9989 140.1 68.6434 139.604 68.7113L74.9467 77.8011Z" fill="white"/>
<path d="M75.7684 85.3307C77.2417 85.0197 80.0304 84.6082 81.57 84.393C82.2192 84.3005 82.891 84.7202 83.1824 85.3957C83.7493 86.7198 84.6258 89.0239 85.0696 91.5324C85.2029 92.2856 84.7611 92.9483 84.0829 93.0272L78.3753 93.6695C77.6765 93.7509 76.9743 93.2308 76.7608 92.4703L75.0911 86.6364C74.9202 86.0384 75.2244 85.4507 75.7684 85.3307Z" fill="white"/>
<path opacity="0.6" d="M87.1065 85.8367C86.6158 85.8756 86.3565 86.3674 86.5368 86.9223L86.8886 88.0141C87.0701 88.5752 87.6162 88.974 88.1022 88.9103L102.34 87.0433C102.831 86.9788 103.133 86.456 103.021 85.886L102.962 85.6013C102.848 85.025 102.35 84.5944 101.859 84.6333L87.1065 85.8367Z" fill="white"/>
<path d="M107.968 80.2761C109.441 79.965 112.23 79.5535 113.769 79.3383C114.418 79.2458 115.09 79.6655 115.382 80.341C115.948 81.6651 116.825 83.9692 117.269 86.4777C117.402 87.2309 116.96 87.8937 116.282 87.9725L110.574 88.6149C109.876 88.6962 109.174 88.1761 108.96 87.4157L107.29 81.5817C107.119 80.9838 107.424 80.396 107.968 80.2761Z" fill="white"/>
<path opacity="0.6" d="M119.305 80.783C118.815 80.8219 118.555 81.3137 118.736 81.8686L119.087 82.9604C119.269 83.5215 119.815 83.9204 120.301 83.8567L134.539 81.9896C135.03 81.9252 135.332 81.4024 135.219 80.8323L135.16 80.5476C135.046 79.9713 134.548 79.5407 134.058 79.5796L119.305 80.783Z" fill="white"/>
<path opacity="0.78" d="M68.5581 42.7026L74.4065 66.9429C74.6023 67.7461 75.326 68.3215 76.0641 68.2526C80.1889 67.8713 93.0305 66.6171 100.157 65.3058C100.964 65.1588 101.466 64.3496 101.314 63.4482C100.548 58.8612 98.2131 45.5215 96.1692 40.081C95.8375 39.202 95.009 38.6282 94.1723 38.7036L69.7625 40.7928C68.8825 40.862 68.327 41.7474 68.5581 42.7026Z" fill="white"/>
<path d="M89.5811 50.272C89.5615 47.5492 87.2145 45.1291 84.339 44.8665C81.4635 44.6039 79.1483 46.5983 79.168 49.3211C79.1877 52.0439 81.5347 54.464 84.4102 54.7266C87.2857 54.9892 89.6008 52.9948 89.5811 50.272Z" fill="#ACE0F0"/>
<path d="M79.5375 65.8499L95.0079 63.8875C95.9558 63.7673 96.2993 62.5263 95.612 61.6975C93.8506 59.568 90.445 56.5455 85.7141 57.3013C81.1548 58.0293 79.0239 61.4188 78.0824 63.7774C77.683 64.786 78.5215 65.9788 79.5375 65.8499Z" fill="#ACE0F0"/>
<path d="M87.8452 107.238C87.8401 107.239 87.8351 107.24 87.83 107.24L82.6175 107.791C81.8748 107.873 81.139 107.368 80.9093 106.623L79.4204 101.773C79.3349 101.491 79.351 101.196 79.4757 100.948C79.6146 100.669 79.8704 100.475 80.1805 100.415C80.61 100.33 81.2176 100.2 81.8545 100.061C83.2031 99.7691 84.8798 99.4034 85.8372 99.2797C86.5369 99.192 87.2245 99.5912 87.5362 100.256C88.042 101.349 88.471 103.487 88.8971 105.759C89.0356 106.491 88.5613 107.155 87.8452 107.238ZM80.2996 100.857C80.095 100.899 79.9287 101.024 79.8404 101.198C79.7677 101.347 79.7568 101.517 79.8069 101.681L81.2959 106.531C81.4572 107.05 81.9843 107.404 82.5238 107.346L87.7363 106.795C87.7414 106.794 87.7414 106.794 87.7464 106.794C88.2492 106.735 88.5816 106.287 88.4923 105.788C88.0722 103.545 87.6567 101.447 87.1731 100.41C86.9554 99.9443 86.4438 99.6649 85.936 99.7243C84.9887 99.8468 83.3222 100.211 81.9786 100.503C81.3406 100.636 80.7342 100.771 80.2996 100.857Z" fill="white"/>
<path opacity="0.6" d="M80.9564 101.299C82.0307 101.085 84.3518 100.539 85.4709 100.39C85.9473 100.329 86.4323 100.605 86.6414 101.055C87.0498 101.931 87.399 103.739 87.7131 105.405C87.8075 105.903 87.4852 106.35 86.9861 106.402L82.8208 106.843C82.3065 106.897 81.8019 106.552 81.6442 106.05L80.4529 102.171C80.3383 101.775 80.5623 101.38 80.9564 101.299Z" fill="white"/>
<g opacity="0.6">
<path d="M92.1158 102.809C92.4 103.517 93.0291 103.948 93.6446 103.852L143.912 96.011C144.48 95.9219 144.839 95.2809 144.709 94.5837C144.583 93.9061 144.037 93.4232 143.485 93.5035L93.0785 100.535C92.1855 100.664 91.7078 101.791 92.1158 102.809Z" fill="#ACE0F0"/>
</g>
<path d="M81.5066 102.091C81.8313 101.793 82.3499 101.888 82.6539 102.296L84.0827 104.214C84.2243 104.404 84.4853 104.362 84.5251 104.138L85.7041 97.5732C85.7625 97.2436 86.1972 97.3019 86.2639 97.6456C86.6396 99.5666 86.95 103.27 84.8792 106.638C84.8792 106.638 83.2514 106.156 81.4254 103.311C81.1623 102.904 81.1945 102.376 81.5066 102.091Z" fill="#26254C"/>
<path d="M89.7466 119.238C89.7415 119.239 89.7364 119.239 89.7313 119.24L84.5189 119.791C83.7762 119.872 83.0404 119.368 82.8107 118.623L81.3217 113.773C81.2363 113.491 81.2524 113.196 81.377 112.948C81.5159 112.668 81.7718 112.475 82.0819 112.415C82.5114 112.33 83.119 112.2 83.7558 112.061C85.1045 111.769 86.7811 111.403 87.7386 111.28C87.7436 111.279 87.7538 111.278 87.7589 111.277C88.4445 111.197 89.127 111.597 89.4376 112.256C89.9434 113.349 90.3723 115.486 90.7985 117.758C90.937 118.491 90.4627 119.154 89.7466 119.238ZM82.2009 112.857C81.9963 112.899 81.83 113.024 81.7418 113.198C81.669 113.346 81.6582 113.517 81.7083 113.681L83.1972 118.531C83.3585 119.05 83.8856 119.403 84.4252 119.346L89.6376 118.795C89.6427 118.794 89.6427 118.794 89.6478 118.794C90.1506 118.735 90.4829 118.287 90.3937 117.788C89.9735 115.545 89.5581 113.447 89.0744 112.41C88.8567 111.944 88.3377 111.654 87.8373 111.724C86.8901 111.847 85.2236 112.211 83.88 112.503C83.2431 112.642 82.6356 112.771 82.2009 112.857Z" fill="white"/>
<path opacity="0.6" d="M82.8593 113.299C83.9335 113.085 86.2546 112.539 87.3737 112.39C87.8501 112.329 88.3352 112.605 88.5443 113.055C88.9526 113.931 89.3018 115.739 89.6159 117.405C89.7103 117.903 89.388 118.35 88.8889 118.403L84.7236 118.843C84.2093 118.897 83.7047 118.553 83.547 118.05L82.3557 114.171C82.2399 113.769 82.4639 113.374 82.8593 113.299Z" fill="white"/>
<path opacity="0.6" d="M94.0142 114.816C94.2984 115.524 94.9275 115.955 95.543 115.859L145.811 108.017C146.378 107.928 146.738 107.287 146.608 106.59C146.481 105.913 145.936 105.43 145.383 105.51L94.9769 112.542C94.0828 112.665 93.6051 113.791 94.0142 114.816Z" fill="#ACE0F0"/>
<path d="M83.408 114.086C83.7327 113.788 84.2513 113.883 84.5554 114.291L85.9842 116.209C86.1258 116.4 86.3867 116.357 86.4266 116.134L87.6055 109.568C87.6639 109.239 88.0985 109.297 88.1652 109.641C88.541 111.562 88.8514 115.266 86.7807 118.634C86.7807 118.634 85.1529 118.151 83.3269 115.306C83.0637 114.899 83.0959 114.371 83.408 114.086Z" fill="#26254C"/>
<path d="M91.648 131.238C91.6429 131.239 91.6378 131.24 91.6328 131.24L86.4203 131.791C85.6776 131.873 84.9418 131.368 84.7121 130.623L83.2231 125.773C83.1377 125.491 83.1538 125.196 83.2784 124.948C83.4173 124.668 83.6732 124.475 83.9832 124.415C84.4128 124.33 85.0203 124.2 85.6572 124.061C87.0059 123.769 88.6825 123.403 89.6399 123.28C89.645 123.279 89.6552 123.278 89.6603 123.277C90.3459 123.197 91.0284 123.597 91.339 124.257C91.8448 125.349 92.2738 127.487 92.6999 129.759C92.8384 130.491 92.3641 131.155 91.648 131.238ZM84.1023 124.857C83.8977 124.899 83.7314 125.024 83.6432 125.198C83.5704 125.347 83.5596 125.517 83.6096 125.681L85.0986 130.531C85.2599 131.05 85.7871 131.404 86.3266 131.346L91.5391 130.795C91.5441 130.794 91.5441 130.794 91.5492 130.794C92.052 130.735 92.3844 130.287 92.2951 129.788C91.8749 127.545 91.4595 125.447 90.9758 124.41C90.7581 123.944 90.2391 123.654 89.7387 123.724C88.7914 123.847 87.1249 124.211 85.7814 124.503C85.1433 124.636 84.5369 124.771 84.1023 124.857Z" fill="white"/>
<path opacity="0.6" d="M84.7601 125.295C85.8344 125.081 88.1555 124.535 89.2746 124.386C89.751 124.325 90.2361 124.601 90.4452 125.051C90.8535 125.927 91.2027 127.735 91.5168 129.401C91.6112 129.899 91.2889 130.346 90.7898 130.398L86.6245 130.839C86.1102 130.893 85.6056 130.549 85.4479 130.046L84.2566 126.167C84.142 125.771 84.366 125.376 84.7601 125.295Z" fill="white"/>
<path opacity="0.6" d="M95.9131 126.812C96.1974 127.52 96.8265 127.951 97.4419 127.855L147.71 120.014C148.277 119.925 148.637 119.284 148.507 118.587C148.38 117.909 147.835 117.426 147.282 117.506L96.8759 124.538C95.9829 124.667 95.5051 125.794 95.9131 126.812Z" fill="#ACE0F0"/>
<path d="M85.3089 126.091C85.6336 125.793 86.1521 125.888 86.4562 126.296L87.885 128.214C88.0266 128.404 88.2876 128.362 88.3274 128.138L89.5064 121.573C89.5648 121.244 89.9994 121.302 90.0661 121.646C90.4419 123.567 90.7522 127.27 88.6815 130.638C88.6815 130.638 87.0537 130.156 85.2277 127.311C84.9646 126.904 84.9968 126.375 85.3089 126.091Z" fill="#26254C"/>
<path d="M93.5511 143.235C93.5461 143.236 93.541 143.236 93.5359 143.237L88.3235 143.788C87.5808 143.869 86.845 143.365 86.6153 142.62L85.1264 137.77C85.0409 137.488 85.0571 137.193 85.1817 136.945C85.3206 136.665 85.5765 136.472 85.8865 136.412C86.3161 136.327 86.9236 136.197 87.5605 136.058C88.9091 135.766 90.5858 135.4 91.5432 135.277C91.5483 135.276 91.5585 135.275 91.5635 135.274C92.2491 135.194 92.9317 135.594 93.2422 136.253C93.748 137.346 94.177 139.483 94.603 141.755C94.7416 142.488 94.2672 143.151 93.5511 143.235ZM86.0056 136.854C85.801 136.896 85.6347 137.021 85.5465 137.195C85.4737 137.344 85.4628 137.514 85.5129 137.678L87.0018 142.528C87.1631 143.047 87.6902 143.4 88.2298 143.343L93.4422 142.792C93.4473 142.791 93.4473 142.791 93.4524 142.791C93.9552 142.732 94.2875 142.283 94.1982 141.785C93.7781 139.542 93.3627 137.444 92.8791 136.407C92.6614 135.941 92.1412 135.645 91.642 135.721C90.6947 135.844 89.0282 136.208 87.6847 136.5C87.0478 136.639 86.4402 136.768 86.0056 136.854Z" fill="white"/>
<path opacity="0.6" d="M86.6615 137.296C87.7357 137.082 90.0569 136.536 91.176 136.387C91.6523 136.326 92.1374 136.602 92.3465 137.052C92.7549 137.928 93.1041 139.736 93.4182 141.402C93.5126 141.9 93.1903 142.347 92.6912 142.4L88.5259 142.84C88.0116 142.894 87.507 142.55 87.3493 142.048L86.1579 138.168C86.0421 137.766 86.2662 137.371 86.6615 137.296Z" fill="white"/>
<path opacity="0.6" d="M97.8164 138.816C98.1007 139.524 98.7298 139.955 99.3452 139.859L149.613 132.017C150.181 131.928 150.54 131.287 150.41 130.59C150.283 129.913 149.738 129.43 149.185 129.51L98.7792 136.542C97.8851 136.665 97.4073 137.791 97.8164 138.816Z" fill="#ACE0F0"/>
<path d="M87.2088 138.087C87.5335 137.789 88.0521 137.884 88.3562 138.292L89.7849 140.21C89.9266 140.401 90.1875 140.358 90.2273 140.135L91.4062 133.569C91.4647 133.24 91.8993 133.298 91.966 133.642C92.3418 135.563 92.6522 139.267 90.5815 142.635C90.5815 142.635 88.9537 142.152 87.1277 139.307C86.8645 138.9 86.8967 138.372 87.2088 138.087Z" fill="#26254C"/>
<path d="M99.0007 9.49574C95.9378 7.85643 93.5996 8.21555 92.0459 8.9634C90.6235 9.64203 89.9334 11.3321 90.3774 12.987L92.5963 21.1989L101.214 20.8488C101.214 20.8488 105.003 12.7114 99.0007 9.49574ZM96.4934 16.7115C95.3286 16.8705 94.1986 15.9875 93.9728 14.7417C93.7469 13.4958 94.5098 12.3544 95.6747 12.1954C96.8395 12.0363 97.9695 12.9194 98.1953 14.1652C98.4212 15.411 97.6583 16.5524 96.4934 16.7115Z" fill="#E03C31"/>
<path d="M92.8086 17.6493C92.705 17.6635 92.6019 17.5923 92.5705 17.4773L92.2176 16.1727C92.1851 16.0521 92.2489 15.9354 92.3608 15.9087C92.4728 15.882 92.5872 15.9573 92.6197 16.0779L92.9726 17.3825C93.0051 17.5031 92.9413 17.6198 92.8293 17.6465C92.819 17.6479 92.8138 17.6486 92.8086 17.6493ZM92.117 15.0894C92.0134 15.1036 91.9103 15.0324 91.8789 14.9173L91.6091 13.9254C91.1872 12.3574 91.8514 10.7489 93.1943 10.1048C94.1418 9.65125 95.1738 9.45899 96.2518 9.55032C96.3646 9.55764 96.4582 9.66421 96.4585 9.78353C96.4589 9.90285 96.3642 9.99538 96.2514 9.98806C95.2396 9.91041 94.2781 10.0817 93.3897 10.5101C92.2222 11.0676 91.6472 12.465 92.0174 13.8354L92.2872 14.8274C92.3196 14.948 92.2558 15.0647 92.1439 15.0914C92.1325 15.0873 92.1222 15.0887 92.117 15.0894Z" fill="white"/>
<path d="M81.4922 28.2685L80.7253 23.912C80.4608 22.4095 81.3877 21.0426 82.7693 20.9018L110.399 18.0667C111.626 17.9416 112.796 18.8529 113.105 20.1767L114.07 24.333L81.4922 28.2685Z" fill="#E03C31"/>
<path d="M90.8095 21.71L89.6296 21.8748C89.5132 21.891 89.4046 21.7989 89.383 21.6768C89.3603 21.5489 89.438 21.4367 89.5491 21.4212L90.7291 21.2565C90.8455 21.2403 90.954 21.3324 90.9756 21.4545C90.9973 21.5766 90.9259 21.6938 90.8095 21.71Z" fill="white"/>
<path d="M82.7144 26.8278C82.5988 26.8436 82.4913 26.7546 82.4699 26.6365L82.1605 24.9266C81.9214 23.6049 82.73 22.3934 83.9641 22.2245L88.2649 21.6361C88.3804 21.6203 88.488 21.7093 88.5094 21.8274C88.5317 21.9512 88.4545 22.0597 88.3442 22.0748L84.0435 22.6632C83.0405 22.8005 82.38 23.79 82.5744 24.8643L82.8837 26.5741C82.9008 26.6986 82.8299 26.812 82.7144 26.8278Z" fill="white"/>
<path d="M72.416 27.5975L120.523 20.6703C122.255 20.421 123.969 21.5937 124.594 23.4511L124.681 23.7055C125.364 25.7426 124.251 27.8501 122.355 28.1231L72.9947 35.2308C71.8635 35.3937 70.7729 34.4648 70.6144 33.1955L70.2969 30.7176C70.1011 29.1684 71.0298 27.7971 72.416 27.5975Z" fill="#E03C31"/>
<path d="M164.025 45.3351C164.419 34.8158 155.913 25.4302 145.025 24.3717C134.136 23.3132 124.99 30.9826 124.595 41.5018C124.2 52.0211 132.707 61.4067 143.595 62.4652C154.483 63.5237 163.63 55.8543 164.025 45.3351Z" fill="white"/>
<path d="M151.409 41.0116C151.031 41.0633 150.591 40.8334 150.495 40.3001C149.899 37.0138 146.899 34.6801 143.822 35.1001C143.311 35.1698 142.981 34.7912 142.908 34.3886C142.835 33.9859 143.025 33.5361 143.526 33.4678C146.613 33.0464 148.632 30.0276 148.036 26.7412C147.939 26.208 148.276 25.8721 148.654 25.8205C149.033 25.7688 149.472 25.9987 149.569 26.532C150.165 29.8183 153.165 32.152 156.252 31.7306C156.763 31.6609 157.093 32.0395 157.166 32.4421C157.239 32.8448 157.049 33.2946 156.548 33.3629C153.461 33.7843 151.432 36.8045 152.028 40.0908C152.126 40.6349 151.787 40.96 151.409 41.0116Z" fill="#F05F36"/>
<path d="M154.234 37.8338C155.092 39.2615 155.728 40.8635 156.07 42.5925C157.47 49.6623 153.382 56.0511 146.943 56.8538C140.505 57.6565 134.144 52.5705 132.745 45.5006C131.345 38.4308 135.433 32.042 141.872 31.2393C142.072 31.2143 142.265 31.2016 142.465 31.1766L141.822 27.928C141.629 27.9407 141.429 27.9657 141.228 27.9907C133.156 28.9972 128.039 36.9924 129.794 45.8572C131.549 54.7221 139.51 61.0868 147.582 60.0803C155.655 59.0739 160.772 51.0787 159.017 42.2139C158.585 40.0334 157.772 38.0021 156.685 36.1968L154.234 37.8338Z" fill="#ACE0F0"/>
</svg>
