<svg width="208" height="180" viewBox="0 0 208 180" fill="none" xmlns="http://www.w3.org/2000/svg">
<path opacity="0.5" d="M0.829999 12C0.829999 8.33067 1.534 5.44 2.942 3.328C4.37133 1.216 6.66467 0.159998 9.822 0.159998C12.9793 0.159998 15.262 1.216 16.67 3.328C18.0993 5.44 18.814 8.33067 18.814 12C18.814 15.712 18.0993 18.624 16.67 20.736C15.262 22.848 12.9793 23.904 9.822 23.904C6.66467 23.904 4.37133 22.848 2.942 20.736C1.534 18.624 0.829999 15.712 0.829999 12ZM13.438 12C13.438 9.84533 13.2033 8.192 12.734 7.04C12.2647 5.86667 11.294 5.28 9.822 5.28C8.35 5.28 7.37933 5.86667 6.91 7.04C6.44067 8.192 6.206 9.84533 6.206 12C6.206 13.4507 6.29133 14.656 6.462 15.616C6.63267 16.5547 6.974 17.3227 7.486 17.92C8.01933 18.496 8.798 18.784 9.822 18.784C10.846 18.784 11.614 18.496 12.126 17.92C12.6593 17.3227 13.0113 16.5547 13.182 15.616C13.3527 14.656 13.438 13.4507 13.438 12ZM21.257 7.232C21.3423 4.94933 22.089 3.18933 23.497 1.952C24.905 0.714666 26.8143 0.0959988 29.225 0.0959988C30.825 0.0959988 32.1903 0.373332 33.321 0.927999C34.473 1.48267 35.337 2.24 35.913 3.2C36.5103 4.16 36.809 5.23733 36.809 6.432C36.809 7.84 36.457 8.992 35.753 9.888C35.049 10.7627 34.2277 11.36 33.289 11.68V11.808C34.505 12.2133 35.465 12.8853 36.169 13.824C36.873 14.7627 37.225 15.968 37.225 17.44C37.225 18.7627 36.9157 19.936 36.297 20.96C35.6997 21.9627 34.8143 22.752 33.641 23.328C32.489 23.904 31.113 24.192 29.513 24.192C26.953 24.192 24.905 23.5627 23.369 22.304C21.8543 21.0453 21.0543 19.1467 20.969 16.608H26.281C26.3023 17.5467 26.569 18.2933 27.081 18.848C27.593 19.3813 28.3397 19.648 29.321 19.648C30.153 19.648 30.793 19.4133 31.241 18.944C31.7103 18.4533 31.945 17.8133 31.945 17.024C31.945 16 31.6143 15.264 30.953 14.816C30.313 14.3467 29.2783 14.112 27.849 14.112H26.825V9.664H27.849C28.937 9.664 29.8117 9.48267 30.473 9.12C31.1557 8.736 31.497 8.064 31.497 7.104C31.497 6.336 31.2837 5.73867 30.857 5.312C30.4303 4.88533 29.8437 4.672 29.097 4.672C28.2863 4.672 27.6783 4.91733 27.273 5.408C26.889 5.89867 26.665 6.50667 26.601 7.232H21.257Z" fill="#ACE0F0"/>
<circle cx="116.5" cy="90" r="90" fill="#FDEFEF"/>
<g clip-path="url(#clip0_908_7166)">
<rect x="117.862" y="84.5596" width="27.6948" height="28.4702" fill="#EAFAFF"/>
<path d="M179.563 110.03H173.142V73.5325C173.144 72.6524 172.956 71.782 172.589 70.9792C172.222 70.1763 171.685 69.4595 171.015 68.8766L138.908 40.1912C137.731 39.1292 136.191 38.54 134.594 38.54C132.996 38.54 131.457 39.1292 130.279 40.1912L98.1726 68.8766C97.5152 69.4678 96.9902 70.1871 96.6309 70.9887C96.2716 71.7903 96.0859 72.6566 96.0856 73.5325V110.03H89.6643C88.8128 110.03 87.9961 110.363 87.394 110.955C86.7919 111.547 86.4536 112.35 86.4536 113.187C86.4536 114.024 86.7919 114.827 87.394 115.419C87.9961 116.011 88.8128 116.344 89.6643 116.344H179.563C180.415 116.344 181.231 116.011 181.834 115.419C182.436 114.827 182.774 114.024 182.774 113.187C182.774 112.35 182.436 111.547 181.834 110.955C181.231 110.363 180.415 110.03 179.563 110.03ZM144.246 110.03H124.982V91.0909C124.982 90.2538 125.32 89.4509 125.922 88.8589C126.524 88.2669 127.341 87.9344 128.192 87.9344H141.035C141.887 87.9344 142.703 88.2669 143.305 88.8589C143.908 89.4509 144.246 90.2538 144.246 91.0909V110.03Z" fill="#CBECF6"/>
<path fill-rule="evenodd" clip-rule="evenodd" d="M140.52 37.9639C137.052 34.8534 131.738 34.8744 128.295 38.0124L91.5554 71.5002C90.8239 72.1669 89.6812 72.1244 89.0031 71.4053C88.325 70.6862 88.3682 69.5627 89.0996 68.896L125.839 35.4082C130.659 31.0151 138.099 30.9856 142.955 35.3404L181.321 69.7498C182.058 70.4107 182.11 71.5338 181.438 72.2582C180.766 72.9827 179.624 73.0342 178.887 72.3733L140.52 37.9639Z" fill="#E03C31"/>
<path d="M79.0851 93.2304C84.6787 93.2304 89.2132 88.6826 89.2132 83.0726C89.2132 77.4626 84.6787 72.9148 79.0851 72.9148C73.4915 72.9148 68.957 77.4626 68.957 83.0726C68.957 88.6826 73.4915 93.2304 79.0851 93.2304Z" fill="#5D5D5D"/>
<path d="M87.8537 89.2996C87.8537 89.2996 86.8539 97.9982 84.9889 99.1081L94.1115 117.627L103.054 101.908C103.054 101.908 98.6334 100.962 98.2627 92.8094L87.8537 89.2996Z" fill="#F8DBD9"/>
<path d="M98.533 97.6647C96.8126 97.6629 95.0934 97.5745 93.3818 97.3999L93.438 96.8365C98.2633 97.3154 102.69 97.1351 105.914 96.3182C108.987 95.5464 110.762 94.2675 110.919 92.7238C111.234 89.5295 103.218 85.997 93.4043 85.0168L93.4605 84.4534C103.92 85.4956 111.835 89.152 111.475 92.7746C111.296 94.5717 109.369 96.0253 106.049 96.8591C103.585 97.4303 101.062 97.7008 98.533 97.6647Z" fill="white"/>
<path d="M87.8542 89.2986C87.8542 89.2986 74.631 80.6788 73.5187 74.6506C69.3956 52.4251 100.415 47.4223 105.487 63.7604L87.8542 89.2986Z" fill="#5D5D5D"/>
<path d="M89.2859 66.2007C89.2859 66.2007 100.111 60.9105 104.913 66.8373C109.716 72.7641 109.716 91.2882 101.959 93.8797C94.2011 96.4713 85.337 89.8065 85.337 82.7698C85.337 82.7698 83.4889 73.5923 88.2917 79.1022C88.2917 79.1134 95.2178 73.9923 89.2859 66.2007Z" fill="#F8DBD9"/>
<path d="M81.2753 63.5969C81.2753 63.5969 98.015 74.4026 107.952 72.2392C117.889 70.0758 104.11 52.3631 81.2753 63.5969Z" fill="#5D5D5D"/>
<path d="M88.8309 77.3269C94.9182 80.066 101.471 81.613 108.138 81.8847C108.138 81.8847 108.233 91.1242 102.717 93.5693C92.572 98.0763 93.1282 88.0199 85.3987 83.8791L85.3257 82.7805C85.3257 82.7805 90.943 84.4706 88.2804 79.1128L88.8309 77.3269Z" fill="#CBECF6"/>
<g opacity="0.3">
<path d="M111.229 68.9436V92.5776C111.229 92.5776 111.622 97.9635 93.4106 97.1184V70.4591C93.4106 70.4591 106.971 71.7042 111.229 68.9436Z" fill="white"/>
</g>
<path d="M74.3941 64.2505L73.6694 66.4026C74.6244 68.4308 82.6965 70.9097 92.1673 71.8449C102.003 72.8252 110.036 71.9463 111.064 70.0759C111.626 69.0111 110.952 67.4561 110.952 67.4561C110.795 67.8111 110.508 67.935 109.907 68.2111C107.177 69.4505 100.217 69.8336 92.1673 69.028C84.3929 68.2505 77.8319 66.5885 75.203 64.8984C74.6244 64.5096 74.5626 64.6111 74.3941 64.2505Z" fill="#ACE0F0"/>
<path d="M109.054 101.569C114.823 103.113 120.85 109.935 122.631 125.507C124.412 141.079 129.203 183.705 120.171 186.595L112.233 186.899C112.233 186.899 109.762 146.302 109.425 137.209C109.088 128.116 98.3417 98.7016 109.054 101.569Z" fill="white"/>
<path d="M113.284 105.716C118.716 119.131 117.115 145.153 111.851 152.252C111.851 152.252 121.041 183.863 120.277 198.106C119.513 212.348 118.783 234.63 120.356 244.512C121.929 254.394 121.036 267.943 116.862 279.442C116.862 279.442 106.548 283.808 104.633 279.442C102.717 275.075 97.9707 261.751 97.0158 246.591C96.0608 231.43 93.0443 205.295 93.0443 205.295C93.0443 205.295 87.8033 236.709 88.5223 244.979C89.2414 253.25 87.0843 272.985 81.8209 281.38C76.5574 289.774 69.1313 285.391 67.2158 281.38C65.3002 277.368 61.2333 260.377 64.3453 242.224C67.4573 224.072 62.6039 170.072 70.7546 157.384C70.7546 157.384 62.0758 138.139 62.3286 130.787C62.5814 123.435 57.2056 108.691 68.6313 99.8347C70.4008 98.4601 78.7088 97.3558 85.5957 97.0178C88.1572 96.8882 87.764 101.108 93.5668 101.108C100.308 101.108 99.1504 98.2911 101.768 98.6967C108.593 99.739 111.75 101.925 113.284 105.716Z" fill="white"/>
<path d="M116.677 132.798C118.915 132.759 121.148 132.571 123.361 132.234L123.053 129.316C120.928 129.652 118.783 129.841 116.632 129.88L116.677 132.798Z" fill="#C9ECF4"/>
<path d="M98.2339 100.324C98.2339 100.324 106.475 100.398 111.676 103.023C111.676 103.023 108.536 98.7693 101.003 98.6566C99.1495 98.6341 99.818 99.2088 98.2339 100.324Z" fill="#C9ECF4"/>
<path d="M99.8809 98.6571C99.8809 98.6571 98.5328 101.474 93.8367 101.085C89.1406 100.697 87.7025 97.9135 87.7025 97.9135L86.5116 96.9895L82.5795 97.2092C82.5795 97.2092 80.7651 105.097 87.225 106.443C93.685 107.79 101.358 103.598 101.229 98.6571H99.8809Z" fill="#E4F6F9"/>
<path d="M69.4345 99.6986C62.733 102.578 60.4467 111.969 53.9699 131.045C47.4931 150.122 51.7229 151.767 65.5529 158.189C75.6641 162.893 78.8941 157.817 80.349 154.341C83.0453 147.919 76.737 147.017 67.0527 140.313C67.0527 140.313 82.9555 109.518 78.7312 103.372C74.507 97.2254 69.4345 99.6986 69.4345 99.6986Z" fill="white"/>
<path d="M80.1747 154.759C79.9668 154.635 66.7436 151.271 61.8846 147.62C57.9131 144.629 57.9524 142.415 59.4466 138.449C59.9073 137.204 60.8061 134.105 61.9464 130.178C64.3843 121.756 68.3895 111.479 70.7656 106.984C73.1418 102.488 84.809 100.933 90.6286 100.595C90.1316 100.351 89.6513 100.074 89.1906 99.7666C88.5404 99.2168 87.9544 98.595 87.4436 97.9131C81.2645 98.5215 70.9173 100.33 68.1086 105.643C65.592 110.398 61.688 120.336 59.0647 129.384C57.9918 133.096 57.0593 136.302 56.6324 137.446C55.0539 141.666 54.3855 145.66 60.0646 149.936C64.4124 153.204 73.6754 157.339 78.7479 157.373C78.7479 157.373 79.158 156.775 79.5737 156.015C79.7948 155.606 79.9954 155.187 80.1747 154.759Z" fill="#C9ECF4"/>
<path d="M73.4445 128.318L74.6017 125.45C68.7618 124.318 63.1084 122.373 57.8058 119.67L56.8564 122.453C57.1485 122.622 63.5018 126.431 73.4445 128.318Z" fill="#C9ECF4"/>
<path d="M96.2856 155.885C91.568 155.869 86.8682 155.302 82.2815 154.195C82.2457 154.185 82.2121 154.169 82.1825 154.147C82.1529 154.125 82.128 154.097 82.1093 154.065C82.0905 154.033 82.0782 153.998 82.0731 153.961C82.0679 153.924 82.07 153.887 82.0793 153.851C82.089 153.815 82.1058 153.781 82.1287 153.752C82.1515 153.722 82.1799 153.698 82.2123 153.679C82.2447 153.661 82.2804 153.649 82.3174 153.645C82.3543 153.641 82.3918 153.644 82.4276 153.654C82.5624 153.688 96.5552 157.372 108.065 153.654C108.1 153.643 108.137 153.638 108.174 153.642C108.21 153.645 108.246 153.656 108.278 153.673C108.311 153.69 108.34 153.714 108.363 153.743C108.386 153.771 108.403 153.804 108.413 153.84C108.425 153.874 108.429 153.911 108.426 153.948C108.423 153.984 108.413 154.02 108.396 154.052C108.38 154.085 108.357 154.113 108.329 154.137C108.301 154.16 108.269 154.178 108.234 154.189C104.362 155.368 100.332 155.94 96.2856 155.885Z" fill="#CDF1F9"/>
<path d="M89.6007 128.95C90.0388 118.595 87.6178 110.094 82.6015 104.37C79.8995 101.282 77.0909 98.578 75.709 97.9527L80.8713 97.209C82.6184 98.3714 84.2001 99.7663 85.573 101.355C88.2858 104.431 90.3512 108.024 91.6454 111.919C93.3306 116.916 94.0833 122.708 93.8137 129.13C92.9767 148.849 87.6346 173.576 85.8483 180.472C84.4215 180.291 83.0396 180.094 81.6352 179.874C83.3148 173.401 88.7525 148.595 89.6007 128.95Z" fill="#E03C31"/>
<path d="M81.7017 151.768H86.9652C86.9652 151.768 85.9091 155.277 88.1841 155.807C89.4867 156.128 90.8474 156.128 92.15 155.807C92.15 155.807 97.8459 158.292 90.622 163.694C85.426 167.565 77.0449 158.241 77.0449 158.241C77.0449 158.241 78.9267 152.996 81.7017 151.768Z" fill="#8DDFF8"/>
<path d="M120.299 198.388C120.225 198.382 120.157 198.347 120.107 198.292C120.058 198.236 120.032 198.163 120.035 198.089C120.766 184.055 111.688 152.646 111.609 152.331C111.595 152.289 111.592 152.245 111.6 152.201C111.608 152.158 111.626 152.117 111.654 152.083C116.789 145.137 118.435 119.114 113.053 105.824C113.039 105.789 113.033 105.752 113.033 105.715C113.034 105.678 113.041 105.642 113.056 105.608C113.071 105.574 113.092 105.543 113.118 105.517C113.145 105.491 113.176 105.471 113.21 105.457C113.279 105.429 113.356 105.43 113.424 105.458C113.493 105.487 113.547 105.541 113.576 105.609C119.092 119.243 117.451 144.939 112.188 152.303C112.834 154.556 121.322 184.461 120.614 198.117C120.612 198.156 120.602 198.194 120.585 198.229C120.568 198.264 120.544 198.295 120.514 198.32C120.485 198.345 120.451 198.364 120.414 198.376C120.377 198.387 120.338 198.391 120.299 198.388Z" fill="#CDF1F9"/>
<path d="M81.7025 152.048C81.6575 152.047 81.6133 152.035 81.5734 152.014C81.5078 151.979 81.4588 151.918 81.4368 151.847C81.4147 151.775 81.4214 151.698 81.4554 151.631C82.3542 149.941 73.8383 144.076 68.2603 140.786C68.2007 140.752 68.1558 140.697 68.134 140.631C68.1123 140.566 68.1153 140.495 68.1423 140.431C68.176 140.358 71.3498 133.023 75.4449 122.803C76.4105 120.388 77.1953 117.904 77.7929 115.372C77.8008 115.336 77.8159 115.301 77.8373 115.271C77.8586 115.241 77.8859 115.215 77.9173 115.196C77.9488 115.176 77.9838 115.164 78.0203 115.158C78.0569 115.152 78.0941 115.154 78.1299 115.163C78.2021 115.181 78.2644 115.226 78.3033 115.289C78.3423 115.353 78.3547 115.429 78.3378 115.501C77.7328 118.06 76.9405 120.57 75.9673 123.011C72.2879 132.234 69.3388 139.107 68.7715 140.426C71.6812 142.149 83.3429 149.282 81.9722 151.896C81.9465 151.945 81.9074 151.985 81.8596 152.012C81.8118 152.039 81.7573 152.051 81.7025 152.048Z" fill="#CDF1F9"/>
<path d="M72.8556 160.589C72.3161 160.587 71.7795 160.511 71.2603 160.364C71.1886 160.343 71.128 160.295 71.0912 160.23C71.0545 160.164 71.0446 160.087 71.0637 160.015C71.0846 159.943 71.133 159.883 71.1983 159.847C71.2636 159.811 71.3405 159.802 71.412 159.823C72.3865 160.107 73.4237 160.09 74.3885 159.774C75.3532 159.459 76.201 158.859 76.8215 158.054C76.8423 158.024 76.8688 157.998 76.8997 157.978C76.9305 157.958 76.9651 157.945 77.0012 157.939C77.0373 157.932 77.0742 157.933 77.1099 157.942C77.1456 157.95 77.1793 157.965 77.2091 157.987C77.2395 158.008 77.2653 158.035 77.2852 158.067C77.305 158.098 77.3185 158.133 77.3248 158.17C77.331 158.206 77.33 158.244 77.3217 158.28C77.3135 158.316 77.2981 158.351 77.2765 158.381C76.7476 159.053 76.0769 159.6 75.3126 159.982C74.5483 160.363 73.7093 160.571 72.8556 160.589Z" fill="#CDF1F9"/>
</g>
<defs>
<clipPath id="clip0_908_7166">
<rect width="132" height="148" fill="white" transform="translate(51 32)"/>
</clipPath>
</defs>
</svg>
